<svg xmlns="http://www.w3.org/2000/svg" viewBox="0 0 335 410.71">
    <defs>
        <style>
            .cls-1{fill:#23123a;}.cls-10,.cls-11,.cls-2,.cls-5,.cls-6,.cls-7,.cls-9{fill:none;}.cls-2{stroke:#58be96;}.cls-2,.cls-5,.cls-6,.cls-7,.cls-9{stroke-linecap:round;stroke-linejoin:round;}.cls-10,.cls-11,.cls-2,.cls-5,.cls-6,.cls-7{stroke-width:3px;}.cls-3{fill:#1194f6;}.cls-4{fill:#fffffe;}.cls-5,.cls-6,.cls-7,.cls-9{stroke:#fffffe;}.cls-5{stroke-dasharray:2
            200;}.cls-6{stroke-dasharray:20 200;}.cls-7{stroke-dasharray:80
            100;}.cls-8{fill:#58be96;}.cls-9{stroke-width:4px;}.cls-10{stroke:#1194f6;}.cls-10,.cls-11{stroke-miterlimit:10;}.cls-11{stroke:#fff;}
        </style>
    </defs>
    <title>Asset 8</title>
    <g id="Layer_2" data-name="Layer 2">
        <g id="Dashboard">
            <rect class="cls-1" x="0.01" width="320.33" height="410.71"/>
            <path class="cls-2"
                  d="M105.59,338.76l-22,2.12a3.4,3.4,0,0,1-2.36-.65h0a3.37,3.37,0,0,1-1.38-2.43l-2.13-22A3.43,3.43,0,0,1,80.79,312l22-2.13a3.43,3.43,0,0,1,3.75,3.09l2.12,22A3.43,3.43,0,0,1,105.59,338.76Z"/>
            <rect class="cls-3" x="50.99" y="254.12" width="204.07" height="28.05"
                  transform="translate(-25.01 15.91) rotate(-5.5)"/>
            <rect class="cls-4" x="164.17" y="322.66" width="56.85" height="11.11"
                  transform="translate(-30.59 19.98) rotate(-5.5)"/>
            <rect class="cls-4" x="162.17" y="301.27" width="79.52" height="11.11"
                  transform="translate(-28.49 20.78) rotate(-5.5)"/>
            <path class="cls-5"
                  d="M253.9,250.13h0l-2.49-25.86a8.71,8.71,0,0,0-9.51-7.83L56,234.35a8.7,8.7,0,0,0-7.83,9.5l2.39,24.86h0l8.52,88.43a8.71,8.71,0,0,0,9.5,7.83l185.9-17.91a8.71,8.71,0,0,0,7.83-9.5Z"/>
            <polygon class="cls-4" points="244 336.1 249.72 356.78 253.83 348.68 263.51 347.36 244 336.1"/>
            <rect class="cls-4" x="255.48" y="346.71" width="3.21" height="12.84"
                  transform="matrix(0.79, -0.61, 0.61, 0.79, -161.77, 229.22)"/>
            <path class="cls-6"
                  d="M253.9,250.13h0l-2.49-25.86a8.71,8.71,0,0,0-9.51-7.83L56,234.35a8.7,8.7,0,0,0-7.83,9.5l2.39,24.86h0l8.52,88.43a8.71,8.71,0,0,0,9.5,7.83l185.9-17.91a8.71,8.71,0,0,0,7.83-9.5Z"/>
            <path class="cls-7"
                  d="M253.9,250.13h0l-2.49-25.86a8.71,8.71,0,0,0-9.51-7.83L56,234.35a8.7,8.7,0,0,0-7.83,9.5l2.39,24.86h0l8.52,88.43a8.71,8.71,0,0,0,9.5,7.83l185.9-17.91a8.71,8.71,0,0,0,7.83-9.5Z"/>
            <path class="cls-8"
                  d="M105.59,338.76l-22,2.12a3.4,3.4,0,0,1-2.36-.65h0l24-29.62h0a3.47,3.47,0,0,1,1.32,2.39l2.12,22A3.43,3.43,0,0,1,105.59,338.76Z"/>
            <polyline class="cls-9" points="78.37 322.67 93.19 321.02 94.95 329.61 108.02 328.21"/>
            <path class="cls-10" d="M266.89,402.83s9.39-72.85,67.94-79.6"/>
            <path class="cls-11" d="M0,321.53s48.33,0,53.39,86.39"/>
            <path class="cls-4" d="M37.12,293.38a3.56,3.56,0,1,1-3.56-3.56A3.56,3.56,0,0,1,37.12,293.38Z"/>
            <path class="cls-4" d="M304.42,265.8a3.56,3.56,0,1,1-3.56-3.56A3.56,3.56,0,0,1,304.42,265.8Z"/>
            <circle class="cls-3" cx="26.44" cy="189.24" r="3.56"/>
            <path class="cls-3" d="M155,195.19a3.56,3.56,0,1,1-4.7-1.82A3.58,3.58,0,0,1,155,195.19Z"/>
            <circle class="cls-3" cx="283.57" cy="216.4" r="2.6"/>
        </g>
    </g>
</svg>
